<?xml version="1.0" encoding="iso-8859-1"?>
<!-- Uploaded to: SVG Repo, www.svgrepo.com, Generator: SVG Repo Mixer Tools -->
<!DOCTYPE svg PUBLIC "-//W3C//DTD SVG 1.1//EN" "http://www.w3.org/Graphics/SVG/1.1/DTD/svg11.dtd">
<svg fill="#000000" height="800px" width="800px" version="1.1" id="Capa_1" xmlns="http://www.w3.org/2000/svg" xmlns:xlink="http://www.w3.org/1999/xlink" 
	 viewBox="0 0 511.997 511.997" xml:space="preserve">
<g>
	<path d="M506.237,90.512c5.541-12.104,7.123-25.582,4.574-38.978v0c-4.814-25.301-25.048-45.535-50.35-50.349
		c-13.396-2.55-26.875-0.967-38.977,4.574c-16.273,7.45-33.538,9.001-48.614,4.374c-90.549-27.8-199.976,5.156-278.779,83.958
		C15.288,172.895-17.668,282.322,10.132,372.87c4.628,15.076,3.075,32.341-4.375,48.617c-5.539,12.102-7.121,25.577-4.574,38.97
		c4.812,25.303,25.044,45.538,50.346,50.353c4.162,0.793,8.33,1.187,12.464,1.187c9.174,0,18.174-1.938,26.52-5.76
		c16.271-7.448,33.535-9.002,48.612-4.373c90.55,27.805,199.977-5.155,278.779-83.958c78.804-78.803,111.759-188.231,83.958-278.779
		C497.235,124.05,498.788,106.785,506.237,90.512z M486.569,143.822c26.084,84.958-5.309,188.101-79.977,262.77
		s-177.813,106.057-262.77,79.977c-18.833-5.781-40.128-3.964-59.968,5.12c-9.072,4.154-19.215,5.329-29.333,3.403
		c-18.906-3.598-34.023-18.717-37.619-37.624c-1.924-10.115-0.747-20.254,3.404-29.322c9.083-19.845,10.902-41.144,5.122-59.972
		c-26.084-84.958,5.309-188.101,79.977-262.769c57.223-57.223,131.166-89.028,200.834-89.028c21.24,0,42.086,2.957,61.936,9.051
		c18.83,5.781,40.127,3.962,59.97-5.121c9.069-4.151,19.21-5.329,29.327-3.404c18.906,3.598,34.025,18.717,37.623,37.623v0
		c1.925,10.117,0.748,20.258-3.404,29.327C482.606,103.695,480.787,124.993,486.569,143.822z"/>
	<path d="M69.924,192.823c-3.962-1.956-8.759-0.331-10.715,3.632C31.47,252.64,24.904,311.957,40.723,363.478
		c1.057,3.441,4.223,5.654,7.645,5.654c0.778,0,1.569-0.114,2.351-0.354c4.224-1.296,6.596-5.772,5.299-9.996
		c-14.615-47.603-8.386-102.736,17.538-155.245C75.512,199.576,73.886,194.779,69.924,192.823z"/>
	<path d="M461.481,177.23c0.614,3.949,4.019,6.771,7.895,6.771c0.409,0,0.823-0.031,1.24-0.096c4.366-0.679,7.354-4.769,6.675-9.135
		c-1.392-8.948-3.417-17.78-6.017-26.252c-1.297-4.224-5.775-6.594-9.996-5.299c-4.224,1.296-6.597,5.771-5.3,9.996
		C458.355,160.956,460.206,169.036,461.481,177.23z"/>
	<path d="M471.735,199.998c-0.027,0-0.053,0-0.08,0c-4.381,0-7.955,3.53-7.998,7.921c-0.362,36.737-10.967,75.122-30.669,111.003
		c-2.127,3.873-0.711,8.736,3.162,10.863c1.222,0.671,2.542,0.989,3.843,0.989c2.825,0,5.564-1.5,7.02-4.151
		c20.969-38.188,32.257-79.18,32.644-118.547C479.699,203.658,476.153,200.041,471.735,199.998z"/>
</g>
</svg>