<?xml version="1.0" standalone="no"?>
<!DOCTYPE svg PUBLIC "-//W3C//DTD SVG 20010904//EN"
 "http://www.w3.org/TR/2001/REC-SVG-20010904/DTD/svg10.dtd">
<svg version="1.0" xmlns="http://www.w3.org/2000/svg"
 width="512.000000pt" height="512.000000pt" viewBox="0 0 512.000000 512.000000"
 preserveAspectRatio="xMidYMid meet">
<metadata>
Created by potrace 1.14, written by Peter Selinger 2001-2017
</metadata>
<g transform="translate(0.000000,512.000000) scale(0.100000,-0.100000)"
fill="#000000" stroke="none">
<path d="M4358 5104 c-96 -23 -171 -66 -285 -165 -86 -74 -192 -80 -564 -34
-68 8 -134 17 -146 19 -12 3 -53 8 -90 11 -37 4 -79 8 -93 11 -134 22 -615 22
-723 -1 -12 -2 -40 -6 -62 -9 -254 -32 -590 -150 -835 -293 -168 -99 -230
-146 -241 -184 -8 -26 -8 -42 0 -56 9 -18 3 -26 -51 -69 -119 -95 -107 -88
-127 -70 -47 43 -131 0 -131 -68 0 -19 5 -38 11 -41 18 -12 6 -31 -58 -98 -60
-62 -65 -65 -91 -55 -49 19 -74 4 -153 -94 -172 -213 -312 -450 -396 -668 -14
-36 -29 -74 -33 -85 -15 -35 -51 -152 -56 -181 -3 -16 -9 -45 -15 -64 -40
-142 -64 -365 -63 -605 1 -201 6 -273 50 -615 53 -425 52 -550 -9 -623 -158
-187 -198 -280 -192 -446 4 -106 29 -190 89 -293 74 -125 211 -242 335 -285
106 -37 250 -49 336 -28 87 22 185 76 258 145 102 94 199 104 552 59 44 -5 96
-12 115 -14 19 -2 71 -9 115 -14 233 -29 330 -35 520 -35 150 0 341 11 355 19
3 2 30 6 60 10 125 14 426 100 545 154 141 65 192 90 260 129 85 48 246 156
305 204 19 16 40 32 45 36 98 69 378 346 496 492 169 207 274 379 387 630 56
125 130 372 149 495 2 17 8 55 14 85 29 170 31 534 3 780 -10 87 -25 218 -30
250 -3 19 -9 64 -14 100 -26 190 -31 381 -10 445 7 22 39 72 70 111 116 141
160 253 155 396 -4 99 -8 119 -42 206 -77 191 -235 336 -433 397 -73 22 -210
27 -282 9z"/>
</g>
</svg>
